<svg id="Logo_symbol" xmlns="http://www.w3.org/2000/svg" viewBox="0 0 566.93 110.57" width="100%" height="100%" preserveAspectRatio="none"><defs><style>.cls-1{fill:#e50040;}</style></defs><g><polygon class="cls-1" points="142.83 21.32 142.83 89.35 120.74 89.35 120.74 65.2 93.83 65.2 93.83 89.35 71.74 89.35 71.74 21.32 93.83 21.32 93.83 46.29 120.74 46.29 120.74 21.32 142.83 21.32"/><path class="cls-1" d="M432.73,89.35h-23.99v-14.56c0-1.85-.42-3.42-1.35-5.01-9.32-16.15-18.64-32.29-27.96-48.44h25.24c5.07,8.77,10.13,17.55,15.2,26.32,.51,.88,1.23,.88,1.74,0,5.06-8.77,10.13-17.55,15.19-26.32h25.24c-9.32,16.15-18.64,32.29-27.96,48.44-.92,1.59-1.35,3.16-1.35,5.01v14.56Z"/><polygon class="cls-1" points="216.75 37.2 216.75 21.32 152.71 21.32 152.71 89.35 218.35 89.35 218.35 73.36 174.8 73.36 174.8 63.07 202.54 63.07 202.54 48.19 174.8 48.19 174.8 37.2 216.75 37.2"/><path class="cls-1" d="M38.71,71.9h24.21v17.44h-28.91C15.23,89.35,0,74.12,0,55.33S15.23,21.32,34.01,21.32c11.7,0,17.52,.01,28.91,.02v17.45h-24.21c-9.14,0-16.55,7.41-16.55,16.55s7.41,16.55,16.55,16.55"/><path class="cls-1" d="M288.61,65.97c19.34-14.05,9.41-44.65-14.5-44.65h-47.03V89.35h20.83v-17.69h15.94c4.24,0,6.69,1.42,8.8,5.09,1.81,3.14,3.61,6.28,5.42,9.42,1.32,2.29,2.85,3.18,5.5,3.18h17.46c-4.14-7.79-8.28-15.59-12.41-23.38Zm-19.6-10.9h-21.11v-18.12h21.11c5.01,0,9.07,4.06,9.07,9.06s-4.06,9.06-9.07,9.06Z"/><path class="cls-1" d="M370.05,65.97c19.34-14.05,9.41-44.65-14.51-44.65h-47.03V89.35h20.83v-17.69h15.94c4.23,0,6.69,1.42,8.8,5.09,1.81,3.14,3.62,6.28,5.42,9.42,1.32,2.29,2.85,3.18,5.5,3.18h17.45c-4.14-7.79-8.27-15.59-12.41-23.38Zm-19.6-10.9h-21.11v-18.12h21.11c5.01,0,9.06,4.06,9.06,9.06s-4.05,9.06-9.06,9.06Z"/></g><g><path class="cls-1" d="M497.46,82.56c-.02,.2-.04,.4-.06,.61-.59,7.54,2.19,14.94,7.59,20.22,5.4,5.29,12.9,7.8,20.41,7.05,7.52-.75,14.28-4.69,18.53-10.95,4.25-6.25,5.5-14.06,3.43-21.33-.1-.05-.2-.1-.29-.16-1.95-1.02-3.87-2.12-5.73-3.3-1.82-1.14-3.59-2.36-5.29-3.66-1.25-.95-2.48-1.96-3.66-3-1.57-1.39-3.06-2.87-4.46-4.43-3.75,9.94-12.56,17.1-23.05,18.73-2.48,.39-4.91,.46-7.41,.21Z"/><path class="cls-1" d="M534.57,18.01c4.43,11.65,8.65,22.18,13.55,33.64-.7,.18-1.43-.12-1.78-.76-5.81-10.83-10.86-21.21-15.63-32.55-.51-1.2-1-2.41-1.5-3.61-.25-.61-.5-1.22-.74-1.83-.06-.15-.12-.3-.18-.46-.08-.2-.08-.41,0-.62,.04-.08,.09-.14,.13-.21,.05-.06,.1-.12,.14-.18,.39-.52,.69-1.06,.92-1.66,.47-1.21,.61-2.52,.39-3.79-.43-2.57-2.22-4.7-4.67-5.56-2.45-.87-5.18-.34-7.12,1.39-1.95,1.72-2.81,4.37-2.25,6.9,.04,.17,.08,.34,.13,.5,.02,.04,.03,.08,.04,.12,.02,.05,.03,.1,.04,.14,.05,.24-.02,.48-.17,.67-.06,.07-.12,.14-.19,.21-.24,.27-.47,.55-.71,.82-.47,.55-.93,1.12-1.39,1.68-.91,1.14-1.79,2.31-2.64,3.5-1.71,2.41-3.26,4.9-4.68,7.49-.36,.65-.7,1.3-1.03,1.96-.17,.33-.34,.66-.5,.99-.08,.16-.16,.33-.24,.5-.02,.04-.04,.09-.06,.12-.04,.08-.09,.16-.15,.23-.16,.18-.4,.28-.65,.26-.09,0-.19-.02-.28-.04-1.36-.16-2.71-.21-4.07-.16-2.83,.11-5.62,.7-8.25,1.73-5.79,2.25-10.54,6.53-13.39,12.04-2.75,5.3-3.54,11.38-2.26,17.21,1.36,6.18,4.95,11.63,10.11,15.3,4.77,3.4,10.55,5.06,16.4,4.7,6.34-.39,12.3-3.13,16.73-7.69,4.05-4.16,6.56-9.59,7.11-15.37,.57-6.01-1-12.02-4.45-16.98-1.67-2.4-3.74-4.5-6.12-6.2-1.12-.8-2.28-1.5-3.52-2.11-.3-.15-.6-.29-.9-.43-.11-.04-.21-.09-.29-.17-.2-.17-.29-.42-.27-.68,.01-.11,.05-.21,.1-.31,.04-.08,.09-.16,.12-.24,.08-.16,.16-.32,.25-.48,.33-.64,.67-1.28,1.02-1.91,1.41-2.54,2.96-4.96,4.68-7.3,.85-1.16,1.73-2.28,2.65-3.39,.23-.27,.46-.55,.69-.82,.05-.06,.12-.13,.18-.2,.03-.03,.05-.07,.09-.1,.03-.03,.05-.05,.07-.08,.18-.19,.45-.27,.7-.23,.07,.01,.14,.04,.21,.05,.05,.01,.09,.02,.14,.04,.09,.02,.18,.04,.27,.06,.18,.04,.37,.07,.55,.09,.09,.01,.19,.02,.28,.03,.04,0,.08,0,.12,0,.26,.04,.48,.2,.59,.43,.05,.09,.09,.19,.13,.29,.04,.09,.08,.18,.12,.28,.33,.72,.66,1.45,.99,2.18,.08,.18,.16,.36,.25,.54,.04,.09,.09,.18,.13,.27,.06,.14,.13,.26,.15,.42,.02,.13,0,.25-.05,.38-.04,.09-.08,.18-.12,.27-.07,.16-.14,.32-.21,.48-.14,.32-.27,.64-.4,.95-.51,1.25-.96,2.52-1.36,3.81-.77,2.49-1.3,4.99-1.58,7.59,7.12,6.98,10.22,17.1,8.25,26.88,8.79,10.92,22.68,17.8,35.31,22.06,2.82-12.21,3.81-26.71-.78-39.01-2.35-6.29-6.06-11.68-11.36-15.89-5.24-4.16-11.43-6.68-17.83-8.21Z"/></g></svg>