<svg version="1.1" xmlns="http://www.w3.org/2000/svg" xmlns:xlink="http://www.w3.org/1999/xlink" x="0px" y="0px" viewBox="0 0 1009.13 850.39" style="enable-background:new 0 0 1009.13 850.39;" xml:space="preserve" width="100%" height="100%" preserveAspectRatio="none"><style type="text/css"> .st0{fill:#008D58;} .st1{fill:#FFFFFF;} </style><g id="Hilfslinien_für_Zeichenfläche"/><g id="Ebene_1"><polygon class="st0" points="858.58,126.81 257,126.81 152.28,722.09 754.14,722.09 "/><path class="st1" d="M284.3,587.55c0,8.68-3.5,18.62-13.58,24.22c4.76,3.22,8.26,9.1,8.26,17.36c0,18.9-14.28,30.8-32.76,30.8 c-30.38,0-41.72-0.14-41.72-0.14l17.08-95.34h36.4C274.22,564.45,284.3,573.27,284.3,587.55L284.3,587.55z"/><path class="st0" d="M235.16,620.17l-3.78,20.44h13.86c6.72,0,10.36-5.88,10.36-11.9c0-3.64-1.68-8.54-6.44-8.54H235.16z"/><path class="st0" d="M241.6,583.63l-3.5,19.18h12.74c7.84,0,9.94-8.12,9.94-11.48c0-3.22-1.26-7.7-5.88-7.7H241.6z"/><path class="st1" d="M412.54,597.21c1.12-8.96-1.54-14.56-8.12-14.56c-4.62,0-7.28,2.1-9.1,4.48c-2.52,3.22-4.76,11.34-7.28,25.2 c-0.84,5.04-1.82,13.3-1.82,18.48c0,6.02,2.66,11.2,8.68,11.2c6.58,0,10.92-5.46,12.6-14.56h23.94 c-4.48,24.78-19.6,34.58-37.8,34.58c-22.12,0-30.94-14.7-30.94-29.12c0-3.92,0.28-12.18,1.68-20.58c2.66-15.4,6.44-29.82,14-38.22 c7.56-8.4,17.64-11.48,27.16-11.48c19.04,0,30.66,11.48,30.66,29.96c0,1.82,0,3.22-0.14,4.62H412.54z"/><polygon class="st1" points="511.52,659.79 487.02,659.79 493.6,621.99 468.4,621.99 461.68,659.79 437.6,659.79 454.26,564.87 478.34,564.87 471.76,601.41 496.96,601.41 503.54,564.87 527.9,564.87 "/><polygon class="st1" points="602.66,585.45 580.96,585.45 568.08,659.79 543.16,659.79 556.46,585.45 533.92,585.45 537.42,564.87 606.16,564.87 "/><polygon class="st1" points="656.28,659.79 599.16,659.79 616.1,564.87 640.88,564.87 627.44,639.21 659.78,639.21 "/><polygon class="st1" points="740,585.03 702.76,585.03 699.54,601.83 731.46,601.83 727.96,621.99 696.18,621.99 692.96,639.63 730.62,639.63 727.26,659.79 666.08,659.79 682.88,564.87 743.36,564.87 "/><polygon class="st1" points="359.62,585.03 322.38,585.03 319.16,601.83 351.08,601.83 347.58,621.99 315.8,621.99 312.58,639.63 350.24,639.63 346.88,659.79 285.7,659.79 302.5,564.87 362.98,564.87 "/></g></svg>