<svg xmlns="http://www.w3.org/2000/svg" width="210.12" height="35.344" viewBox="0 0 210.12 35.344">
  <g id="Gruppe_481" data-name="Gruppe 481" transform="translate(-90 -13449.156)">
    <g id="fusszeile" transform="translate(-107.87 13468.416)">
      <path id="Pfad_78" data-name="Pfad 78" d="M221.14,11.73c0,1-.35,1.5-1.66,1.5h-1.67V6.42h1.72c1.31,0,1.66.52,1.66,1.5Zm-1.46-7h-3.81V14.96h3.81c2.52,0,3.4-1.29,3.4-2.75V7.48c0-1.47-.88-2.75-3.4-2.75" fill="#706f6f"/>
      <path id="Pfad_79" data-name="Pfad 79" d="M230,11.73c0,1-.35,1.5-1.66,1.5h-1.67V6.42h1.67c1.31,0,1.66.52,1.66,1.5Zm-1.47-7.05h-3.8V14.91h3.8c2.52,0,3.4-1.29,3.4-2.75V7.43c0-1.47-.88-2.75-3.4-2.75" fill="#706f6f"/>
      <path id="Pfad_80" data-name="Pfad 80" d="M232.92,5.3l3.14,9.64h2.85l3.13-9.64-1.82-.59-2.74,8.52-2.74-8.52Z" transform="translate(0.004)" fill="#706f6f"/>
      <rect id="Rechteck_444" data-name="Rechteck 444" width="1.93" height="7.24" transform="translate(255.23 10.198) rotate(-36)" fill="#3b4395"/>
      <rect id="Rechteck_445" data-name="Rechteck 445" width="7.24" height="1.93" transform="translate(249.419 14.95) rotate(-54)" fill="#c62a1b"/>
      <rect id="Rechteck_446" data-name="Rechteck 446" width="1.93" height="7.24" transform="matrix(0.309, -0.951, 0.951, 0.309, 246.767, 6.835)" fill="#f39200"/>
      <rect id="Rechteck_447" data-name="Rechteck 447" width="1.93" height="7.24" transform="translate(254.26)" fill="#86bc25"/>
      <rect id="Rechteck_448" data-name="Rechteck 448" width="7.24" height="1.93" transform="matrix(0.951, -0.309, 0.309, 0.951, 256.189, 7.269)" fill="#2db8c5"/>
      <path id="Pfad_81" data-name="Pfad 81" d="M383.35,14.79h5.6V14h-4.72V10.12h4.38V9.33h-4.38V5.68h4.71V4.89h-5.59Zm-5.12-7.63V8.68c0,1.09-.58,1.5-1.84,1.5h-2.5V5.68h2.5c1.26,0,1.84.42,1.84,1.51m-5.22,7.63h.88V11.03h2.49c2,0,2.73-.91,2.73-2.29V7.19c0-1.39-.73-2.3-2.73-2.3h-3.37Zm-5.12-7.63V8.68c0,1.09-.58,1.5-1.83,1.5h-2.53V5.68h2.51c1.25,0,1.83.42,1.83,1.51m-5.22,7.63h.88V11.03h2.49c2,0,2.73-.91,2.73-2.29V7.19c0-1.39-.73-2.3-2.73-2.3h-3.37Zm-5.49-9.93V12c0,1.39-.88,2.18-2.55,2.18s-2.55-.79-2.55-2.18V4.89h-.88V12c0,1.69,1,3,3.43,3s3.43-1.28,3.43-3V4.89ZM345.6,7.19V8.68c0,1.09-.58,1.5-1.83,1.5h-2.64V5.68h2.66c1.25,0,1.83.42,1.83,1.51m.93,7.63h1l-2.66-3.94a2,2,0,0,0,1.64-2.2V7.16c0-1.39-.73-2.3-2.73-2.3h-3.51v9.93h.87V10.97H344ZM330.44,7.65c0-1.52.58-2.12,2.43-2.12a17.6,17.6,0,0,1,2.62.24l.09-.76a14.859,14.859,0,0,0-2.73-.27c-2.41,0-3.29,1-3.29,2.89v4.45c0,1.84.76,2.89,3.17,2.89a11.48,11.48,0,0,0,3-.42V10.44h-.88v3.52a10.6,10.6,0,0,1-2.09.22c-1.86,0-2.35-.66-2.35-2.12Zm-6.68,7.17h1.28V4.89h-.83v9.08l-4.68-9.11h-1.29v9.93h.84V5.73Zm-15.58,0h5.61v-.79h-4.73V10.15h4.39V9.36h-4.39V5.68h4.71V4.89h-5.59Zm-4.65-9.96h-.88v9.93h.88Zm-10.91.79h2.41c1.67,0,2.21.69,2.21,2.1V11.9c0,1.41-.54,2.1-2.21,2.1h-2.41Zm-.88-.79v9.93h3.28c2.41,0,3.1-1.25,3.1-2.94V7.8c0-1.69-.69-2.94-3.1-2.94Zm-10,9.93h5.6V14h-4.81V10.12h4.38V9.33h-4.38V5.68h4.71V4.89h-5.59Zm-5.46,0h.88l-.3-9.93h-1.33l-3.07,8.11-3.09-8.11h-1.28l-.3,9.93h.88l.21-9.05,2.89,7.77h1.36l2.89-7.77Z" fill="#706f6f"/>
    </g>
    <g id="Gruppe_480" data-name="Gruppe 480" transform="translate(89.475 9)">
      <rect id="Rechteck_868" data-name="Rechteck 868" width="2.41" height="0.74" transform="translate(3.775 13442.589) rotate(-17.99)" fill="#706f6f"/>
      <path id="Pfad_181" data-name="Pfad 181" d="M.88,6.8l.59.43L2.89,5.28,4.31,7.23,4.9,6.8,3.48,4.85l-.59.43-.6-.43Z" transform="translate(0.529 13438.416)" fill="#706f6f"/>
      <rect id="Rechteck_869" data-name="Rechteck 869" width="0.74" height="2.41" transform="matrix(0.309, -0.951, 0.951, 0.309, 0.525, 13442.513)" fill="#706f6f"/>
      <path id="Pfad_182" data-name="Pfad 182" d="M3.26,1.74H2.52V4.15h.74Z" transform="translate(0.529 13438.416)" fill="#706f6f"/>
      <path id="Pfad_183" data-name="Pfad 183" d="M10.654,15.03a6.25,6.25,0,0,1-2.12-.35l.15-.7a7.26,7.26,0,0,0,1.92.3c1.35,0,1.62-.26,1.62-1.19s0-1.15-1.69-1.54c-1.82-.43-2-.88-2-2.21s.58-1.87,2.37-1.87a8,8,0,0,1,2.07.26l-.09.73a11.67,11.67,0,0,0-2-.21c-1.27,0-1.45.33-1.45,1.12,0,1,.06,1.11,1.41,1.45,2.14.54,2.26.88,2.26,2.25s-.51,1.96-2.45,1.96Z" transform="translate(0.525 13438.416)" fill="#706f6f"/>
      <path id="Pfad_184" data-name="Pfad 184" d="M20.244,14.88h-.71l-.05-.56a4.65,4.65,0,0,1-2.47.71c-1.29,0-1.89-.73-1.89-2,0-1.54.71-2,2.14-2h2.16V9.61c0-1-.53-1.33-1.72-1.33a11,11,0,0,0-2.16.24l-.13-.73a9,9,0,0,1,2.24-.29c1.88,0,2.63.75,2.63,2.11Zm-.86-3.12h-2.13c-1,0-1.3.3-1.3,1.25s.18,1.25,1.2,1.25a4.16,4.16,0,0,0,2.23-.75Zm-3.17-6.21h.92v1h-.92Zm2.54,0h.92v1h-.92Z" transform="translate(0.525 13438.416)" fill="#706f6f"/>
      <path id="Pfad_185" data-name="Pfad 185" d="M23.2,12.55c0,1.3.53,1.71,1.89,1.71a9.77,9.77,0,0,0,1.55-.15l.11.71a6.87,6.87,0,0,1-1.66.21c-2.05,0-2.76-.94-2.76-2.51V9.96c0-1.57.71-2.51,2.76-2.51a7.4,7.4,0,0,1,1.66.21l-.11.72a8.72,8.72,0,0,0-1.55-.15c-1.36,0-1.89.4-1.89,1.7Z" transform="translate(0.525 13438.416)" fill="#706f6f"/>
      <path id="Pfad_186" data-name="Pfad 186" d="M33.374,14.88V8.99c0-.54-.29-.73-.79-.73a7.66,7.66,0,0,0-2.8.84v5.78h-.87V4.68l.87-.12V8.29A8.08,8.08,0,0,1,32.7,7.5c1.13,0,1.54.65,1.54,1.65v5.78Z" transform="translate(0.525 13438.416)" fill="#706f6f"/>
      <path id="Pfad_187" data-name="Pfad 187" d="M38.774,15.03a6.25,6.25,0,0,1-2.14-.37l.15-.7a7.26,7.26,0,0,0,1.92.3c1.35,0,1.62-.26,1.62-1.19s0-1.15-1.69-1.54c-1.82-.43-2-.88-2-2.21s.58-1.87,2.37-1.87a8,8,0,0,1,2.07.26l-.09.73a11.67,11.67,0,0,0-2-.21c-1.27,0-1.45.33-1.45,1.12,0,1,.06,1.11,1.41,1.45,2.14.54,2.26.88,2.26,2.25s-.49,1.98-2.43,1.98Z" transform="translate(0.525 13438.416)" fill="#706f6f"/>
      <path id="Pfad_188" data-name="Pfad 188" d="M43.534,6.23V4.68h.87v1.6Zm0,8.65V7.6h.87v7.28Z" transform="translate(0.525 13438.416)" fill="#706f6f"/>
      <path id="Pfad_189" data-name="Pfad 189" d="M48.984,15.03a6.3,6.3,0,0,1-2.14-.37l.15-.7a7.27,7.27,0,0,0,1.93.3c1.34,0,1.61-.26,1.61-1.19s0-1.15-1.69-1.54c-1.82-.43-2-.88-2-2.21s.58-1.87,2.37-1.87a8,8,0,0,1,2.07.26l-.09.73a11.55,11.55,0,0,0-2-.21c-1.28,0-1.45.33-1.45,1.12,0,1,.05,1.11,1.4,1.45,2.14.54,2.26.88,2.26,2.25s-.48,1.98-2.42,1.98Z" transform="translate(0.525 13438.416)" fill="#706f6f"/>
      <path id="Pfad_190" data-name="Pfad 190" d="M54.134,12.55c0,1.3.53,1.71,1.89,1.71a9.77,9.77,0,0,0,1.55-.15l.11.71a6.87,6.87,0,0,1-1.66.21c-2.05,0-2.75-.94-2.75-2.51V9.96c0-1.57.7-2.51,2.75-2.51a7.4,7.4,0,0,1,1.66.21l-.11.72a8.72,8.72,0,0,0-1.55-.15c-1.36,0-1.89.4-1.89,1.7Z" transform="translate(0.525 13438.416)" fill="#706f6f"/>
      <path id="Pfad_191" data-name="Pfad 191" d="M64.3,14.88V8.99c0-.54-.28-.73-.79-.73a7.66,7.66,0,0,0-2.8.84v5.78h-.87V4.68l.87-.12V8.29a8.08,8.08,0,0,1,2.92-.79c1.13,0,1.54.65,1.54,1.65v5.78Z" transform="translate(0.525 13438.416)" fill="#706f6f"/>
      <path id="Pfad_192" data-name="Pfad 192" d="M70.184,14.27a9.48,9.48,0,0,0,2.3-.34l.15.7a8.07,8.07,0,0,1-2.52.4c-2,0-2.7-1.06-2.7-2.64V10.1c0-1.5.67-2.65,2.72-2.65a2.33,2.33,0,0,1,2.65,2.65v1.4h-4.5v.92c0,1.26.44,1.85,1.9,1.85Zm-1.9-3.54h3.64v-.66c0-1.23-.43-1.87-1.79-1.87s-1.85.64-1.85,1.87Z" transform="translate(0.525 13438.416)" fill="#706f6f"/>
      <path id="Pfad_193" data-name="Pfad 193" d="M75.294,13.6h.92v1.28h-.92Z" transform="translate(0.525 13438.416)" fill="#706f6f"/>
      <path id="Pfad_194" data-name="Pfad 194" d="M78.764,9.68A2,2,0,0,1,81,7.43a11.25,11.25,0,0,1,2.24.24V4.68l.87-.12V14.88h-.79l-.05-.68a4.18,4.18,0,0,1-2.45.83,1.8,1.8,0,0,1-2.06-2Zm4.48-1.22a11.67,11.67,0,0,0-2.27-.25c-1,0-1.35.48-1.35,1.47v3.31c0,.84.27,1.25,1.26,1.25a3.75,3.75,0,0,0,2.36-.93Z" transform="translate(0.525 13438.416)" fill="#706f6f"/>
      <path id="Pfad_195" data-name="Pfad 195" d="M89.194,14.27a9.33,9.33,0,0,0,2.3-.34l.15.7a8,8,0,0,1-2.51.4c-2.05,0-2.71-1.06-2.71-2.64V10.1c0-1.5.68-2.65,2.73-2.65a2.33,2.33,0,0,1,2.64,2.65v1.4h-4.5v.92c0,1.26.45,1.85,1.9,1.85Zm-1.9-3.54h3.65v-.66c0-1.23-.43-1.87-1.79-1.87s-1.86.64-1.86,1.87Z" transform="translate(0.525 13438.416)" fill="#706f6f"/>
      <path id="Pfad_196" data-name="Pfad 196" d="M97.534,6.23V4.68h.86v1.6Zm0,8.65V7.6h.86v7.28Z" transform="translate(0.525 13438.416)" fill="#706f6f"/>
      <path id="Pfad_197" data-name="Pfad 197" d="M103.02,15.03a6.34,6.34,0,0,1-2.14-.37l.15-.7a7.33,7.33,0,0,0,1.93.3c1.34,0,1.61-.26,1.61-1.19s0-1.15-1.69-1.54c-1.82-.43-2-.88-2-2.21s.58-1.87,2.38-1.87a8,8,0,0,1,2.06.26l-.09.73a11.46,11.46,0,0,0-2-.21c-1.27,0-1.45.33-1.45,1.12,0,1,.06,1.11,1.4,1.45,2.14.54,2.26.88,2.26,2.25s-.48,1.98-2.42,1.98Z" transform="translate(0.525 13438.416)" fill="#706f6f"/>
      <path id="Pfad_198" data-name="Pfad 198" d="M111.53,14.75a4.57,4.57,0,0,1-1.52.28c-1.16,0-1.65-.42-1.65-1.57V8.35h-1.4V7.6h1.4V5.88l.87-.12V7.6h2.23l-.09.75h-2.14v5c0,.65.09.92.84.92a4.76,4.76,0,0,0,1.3-.21Z" transform="translate(0.525 13438.416)" fill="#706f6f"/>
      <path id="Pfad_199" data-name="Pfad 199" d="M119.28,14.27a9.48,9.48,0,0,0,2.31-.34l.15.7a8.07,8.07,0,0,1-2.52.4c-2,0-2.7-1.06-2.7-2.64V10.1c0-1.5.67-2.65,2.72-2.65a2.33,2.33,0,0,1,2.65,2.65v1.4h-4.5v.92c0,1.26.44,1.85,1.89,1.85Zm-1.89-3.54h3.64v-.66c0-1.23-.43-1.87-1.79-1.87s-1.85.64-1.85,1.87Z" transform="translate(0.525 13438.416)" fill="#706f6f"/>
      <path id="Pfad_200" data-name="Pfad 200" d="M124.2,6.23V4.68h.87v1.6Zm0,8.65V7.6h.87v7.28Z" transform="translate(0.525 13438.416)" fill="#706f6f"/>
      <path id="Pfad_201" data-name="Pfad 201" d="M132.22,14.88V8.99c0-.54-.29-.73-.8-.73a7.67,7.67,0,0,0-2.79.84v5.78h-.87V7.6h.77l.06.66a8.26,8.26,0,0,1,3-.81c1.14,0,1.54.65,1.54,1.65v5.78Z" transform="translate(0.525 13438.416)" fill="#706f6f"/>
      <path id="Pfad_202" data-name="Pfad 202" d="M139.21,4.93h3.38c2,0,2.74.91,2.74,2.3V8.78c0,1.39-.73,2.31-2.74,2.31h-2.5v3.79h-.88Zm3.4.79h-2.52v4.57h2.52c1.25,0,1.84-.42,1.84-1.51V7.23c0-1.09-.59-1.55-1.84-1.55Z" transform="translate(0.525 13438.416)" fill="#706f6f"/>
      <path id="Pfad_203" data-name="Pfad 203" d="M150.59,8.3a16.671,16.671,0,0,0-2.3,1.35v5.23h-.87V7.6h.78V8.71a12.719,12.719,0,0,1,2.25-1.26Z" transform="translate(0.525 13438.416)" fill="#706f6f"/>
      <path id="Pfad_204" data-name="Pfad 204" d="M154.6,15.03c-2.05,0-2.83-1.15-2.83-2.64V10.1c0-1.5.78-2.65,2.83-2.65s2.82,1.15,2.82,2.65v2.29C157.42,13.88,156.64,15.03,154.6,15.03Zm1.95-5c0-1.23-.59-1.84-1.95-1.84s-2,.61-2,1.84v2.35c0,1.22.59,1.84,2,1.84s1.93-.54,1.93-1.8Z" transform="translate(0.525 13438.416)" fill="#706f6f"/>
      <path id="Pfad_205" data-name="Pfad 205" d="M159.53,9.68a2,2,0,0,1,2.25-2.25,11.25,11.25,0,0,1,2.24.24V4.68l.87-.12V14.88h-.8V14.2a4.2,4.2,0,0,1-2.45.83,1.8,1.8,0,0,1-2.07-2Zm4.49-1.22a11.67,11.67,0,0,0-2.27-.25c-1,0-1.35.48-1.35,1.47v3.31c0,.84.27,1.25,1.26,1.25a3.78,3.78,0,0,0,2.36-.93Z" transform="translate(0.525 13438.416)" fill="#706f6f"/>
      <path id="Pfad_206" data-name="Pfad 206" d="M168.35,7.6v5.89c0,.54.28.74.79.74a7.66,7.66,0,0,0,2.8-.84V7.6h.86v7.28h-.76l-.06-.65a8.25,8.25,0,0,1-3,.8c-1.14,0-1.54-.64-1.54-1.64V7.6Z" transform="translate(0.525 13438.416)" fill="#706f6f"/>
      <path id="Pfad_207" data-name="Pfad 207" d="M175.53,14.88V4.68l.87-.12V14.88Zm5.21-7.28-2.9,3.59,3,3.69h-1.11l-3-3.69L179.6,7.6Z" transform="translate(0.525 13438.416)" fill="#706f6f"/>
      <path id="Pfad_208" data-name="Pfad 208" d="M186.44,14.75a4.58,4.58,0,0,1-1.53.28c-1.15,0-1.64-.42-1.64-1.57V8.35h-1.41V7.6h1.41V5.88l.87-.12V7.6h2.22l-.09.75h-2.13v5c0,.65.09.92.83.92a4.64,4.64,0,0,0,1.3-.21Z" transform="translate(0.525 13438.416)" fill="#706f6f"/>
      <path id="Pfad_209" data-name="Pfad 209" d="M191.6,9.68a2,2,0,0,1,2.24-2.25,11.25,11.25,0,0,1,2.24.24V4.68l.87-.12V14.88h-.79l-.05-.68a4.18,4.18,0,0,1-2.45.83,1.8,1.8,0,0,1-2.06-2Zm4.48-1.22a11.669,11.669,0,0,0-2.27-.25c-1,0-1.35.48-1.35,1.47v3.31c0,.84.27,1.25,1.26,1.25a3.75,3.75,0,0,0,2.36-.93Z" transform="translate(0.525 13438.416)" fill="#706f6f"/>
      <path id="Pfad_210" data-name="Pfad 210" d="M202.03,14.27a9.33,9.33,0,0,0,2.3-.34l.15.7a8,8,0,0,1-2.51.4c-2.05,0-2.71-1.06-2.71-2.64V10.1c0-1.5.68-2.65,2.73-2.65a2.33,2.33,0,0,1,2.64,2.65v1.4h-4.5v.92c0,1.26.45,1.85,1.9,1.85Zm-1.9-3.54h3.65v-.66c0-1.23-.43-1.87-1.79-1.87s-1.86.64-1.86,1.87Z" transform="translate(0.525 13438.416)" fill="#706f6f"/>
      <path id="Pfad_211" data-name="Pfad 211" d="M210.12,8.3a16.67,16.67,0,0,0-2.3,1.35v5.23h-.87V7.6h.78V8.71a13,13,0,0,1,2.24-1.26Z" transform="translate(0.525 13438.416)" fill="#706f6f"/>
    </g>
  </g>
</svg>
