<?xml version="1.0" encoding="UTF-8"?>
<svg version="1.1" viewBox="0 0 1038 122.1" xml:space="preserve" xmlns="http://www.w3.org/2000/svg" xmlns:cc="http://creativecommons.org/ns#" xmlns:dc="http://purl.org/dc/elements/1.1/" xmlns:rdf="http://www.w3.org/1999/02/22-rdf-syntax-ns#"><metadata><rdf:RDF><cc:Work rdf:about=""><dc:format>image/svg+xml</dc:format><dc:type rdf:resource="http://purl.org/dc/dcmitype/StillImage"/><dc:title/></cc:Work></rdf:RDF></metadata>
<style type="text/css">
	.st0{fill:#76B828;}
	.st1{fill:#FFFFFF;}
	.st2{fill:#535353;}
</style>
<g transform="translate(-99.9,-139)">
			<path class="st0" d="m873.8 261.1c33.7 0 61-27.3 61-61s-27.3-61-61-61-61 27.3-61 61 27.3 61 61 61" fill="#76b828"/>
			<g fill="#fff">
				<path class="st1" d="m876 175.2h35.2v7.9l-23 34.2h12.2c1.7 0 2.7-0.2 3.1-0.6s0.6-1.4 0.6-2.8v-2.7h8.2v13.8h-37.4v-7.7l23-34.2h-10.2c-1.7 0-2.7 0.2-3.1 0.7-0.4 0.4-0.5 1.2-0.5 2.4v2.5h-8.1z"/>
				<path class="st1" d="m868 176.7v11.6h-8.5v-1.3c0-2.6-0.6-4.4-1.7-5.3-1.2-1-2.7-1.4-4.7-1.4-2.2 0-3.9 0.6-5 1.7s-1.7 2.5-1.7 4.1c0 1.4 0.6 2.8 1.8 4.2 1.2 1.3 4.2 3.2 9 5.5s8.1 4.6 10 7c1.9 2.3 2.8 5.2 2.8 8.6 0 4.4-1.5 8.1-4.5 10.9-3 2.9-8 4.3-15 4.3-5.2 0-10.2-1-15.2-2.9v-13.2h8.9v1.5c0 5.1 2.4 7.6 7.3 7.6 2.3 0 4.1-0.6 5.5-1.7 1.3-1.2 2-2.8 2-4.8 0-2.1-0.6-3.6-1.9-4.8-1.3-1.1-3.9-2.8-7.7-4.9-5.6-3-9.3-5.7-11-8.2-1.8-2.5-2.6-5.1-2.6-7.8 0-3.7 1.4-6.9 4.3-9.6 2.8-2.7 7.1-4 12.9-4 5.2-0.1 10.2 0.9 15 2.9"/>
			</g>
		<g fill="#535353">
			<path class="st2" d="m959.3 164h33.2c21.1 0.1 36.9 13.3 36.9 37.7 0 24.2-15.8 37.4-36.9 37.4h-33.2zm20.2 18.3v38.4h12.2c10.1 0 16.9-7 16.9-19.1 0-12.4-6.8-19.3-16.9-19.3z"/>
			<path class="st2" d="m1041.6 239.1v-75.1h58.3v18.4h-39v9.9h31.3v17.3h-31.3v10.9h39v18.4h-58.3z"/>
		</g>
		<g fill="#535353">
			<path class="st2" d="m104.6 215.1c5.6 4 13.7 7.5 22.3 7.5 5.9 0 9.4-1.9 9.4-6 0-2.7-2.1-4.3-6.5-5.6l-11.4-3.4c-12.1-3.6-18.2-10.1-18.2-21 0-13.3 9.9-23.6 29-23.6 10.2 0 20.4 3.1 26 6l-5.7 17.6c-5.7-3.3-14.1-6-21.1-6-5.5 0-7.8 1.9-7.8 5 0 2.4 1.5 3.6 5.3 4.9l12.3 3.8c13.4 4.2 18.7 11 18.7 21.2 0 14.6-11.9 24.9-30.3 24.9-10.7 0-22-3.8-26.7-6.5z"/>
			<path class="st2" d="m187 164h23.8l26.6 75.1h-20.4l-4.3-12.7h-27.9l-4.2 12.7h-20.4zm2.8 46.8h17.9l-8.8-26z"/>
			<path class="st2" d="m278.3 220.6c8.6 0 14.2-3.8 18.6-7.3l9.2 15.4c-7.2 6.8-16.6 11.5-28.5 11.5-21.8 0-38.2-16.7-38.2-38.7s16.4-38.7 38.2-38.7c11.9 0 21.4 4.6 28.5 11.5l-9.2 15.4c-4.4-3.5-10-7.3-18.6-7.3-11 0-18 8.7-18 19.1s6.9 19.1 18 19.1z"/>
			<path class="st2" d="m366.6 210.2h-29.9v28.8h-20.2v-75h20.2v27.9h29.9v-27.9h20.2v75.1h-20.2z"/>
			<path class="st2" d="m404.7 215.1c5.6 4 13.7 7.5 22.3 7.5 5.9 0 9.4-1.9 9.4-6 0-2.7-2.1-4.3-6.5-5.6l-11.4-3.4c-12.1-3.6-18.2-10.1-18.2-21 0-13.3 9.9-23.6 29-23.6 10.2 0 20.4 3.1 26 6l-5.7 17.6c-5.7-3.3-14.1-6-21.1-6-5.5 0-7.8 1.9-7.8 5 0 2.4 1.5 3.6 5.3 4.9l12.3 3.8c13.4 4.2 18.7 11 18.7 21.2 0 14.6-11.9 24.9-30.3 24.9-10.7 0-22-3.8-26.7-6.5z"/>
			<path class="st2" d="m469.2 164h20.2v75.1h-20.2z"/>
			<path class="st2" d="m506.9 215.1c5.6 4 13.7 7.5 22.3 7.5 5.9 0 9.4-1.9 9.4-6 0-2.7-2.1-4.3-6.5-5.6l-11.4-3.4c-12.1-3.6-18.2-10.1-18.2-21 0-13.3 9.9-23.6 29-23.6 10.2 0 20.4 3.1 26 6l-5.7 17.6c-5.7-3.3-14.1-6-21.1-6-5.5 0-7.8 1.9-7.8 5 0 2.4 1.5 3.6 5.3 4.9l12.3 3.8c13.4 4.2 18.7 11 18.7 21.2 0 14.6-11.9 24.9-30.3 24.9-10.7 0-22-3.8-26.7-6.5z"/>
			<path class="st2" d="m605.4 220.6c8.6 0 14.2-3.8 18.6-7.3l9.2 15.4c-7.2 6.8-16.6 11.5-28.5 11.5-21.8 0-38.2-16.7-38.2-38.7s16.4-38.7 38.2-38.7c11.9 0 21.4 4.6 28.5 11.5l-9.2 15.4c-4.4-3.5-10-7.3-18.6-7.3-11 0-18 8.7-18 19.1s6.9 19.1 18 19.1z"/>
			<path class="st2" d="m693.7 210.2h-29.9v28.8h-20.2v-75h20.2v27.9h29.9v-27.9h20.2v75.1h-20.2z"/>
			<path class="st2" d="m730.1 239.1v-75.1h58.3v18.4h-39v9.9h31.3v17.3h-31.3v10.9h39v18.4h-58.3z"/>
		</g>
		<path class="st2" d="m215.4 158.4c5.3 0 9.7-4.3 9.7-9.7 0-5.3-4.3-9.7-9.7-9.7s-9.7 4.3-9.7 9.7c0 5.3 4.3 9.7 9.7 9.7" fill="#535353"/>
		<path class="st2" d="m182.2 158.4c5.3 0 9.7-4.3 9.7-9.7 0-5.3-4.3-9.7-9.7-9.7s-9.7 4.3-9.7 9.7c0 5.3 4.3 9.7 9.7 9.7" fill="#535353"/>
	<path class="st2" d="m1112.2 149.5 10.2 3.3-6.3 8.7 2.6 1.9 6.3-8.7-2.6-1.9 1-3.1-10.2-3.3zm14.5 0.3 1 3.1-2.6 1.9 6.3 8.7 2.6-1.9-6.3-8.7 10.2-3.3-1-3.1zm-3.3 0h3.3v-10.8h-3.3z" fill="#535353"/>
</g>
</svg>
