<?xml version="1.0" encoding="UTF-8"?>
<svg width="388.95" height="16.086" data-name="Ebene 1" version="1.1" viewBox="0 0 388.9542 16.086334" xmlns="http://www.w3.org/2000/svg" xmlns:cc="http://creativecommons.org/ns#" xmlns:dc="http://purl.org/dc/elements/1.1/" xmlns:rdf="http://www.w3.org/1999/02/22-rdf-syntax-ns#">
  <metadata>
    <rdf:RDF>
      <cc:Work rdf:about="">
        <dc:format>image/svg+xml</dc:format>
        <dc:type rdf:resource="http://purl.org/dc/dcmitype/StillImage"/>
        <dc:title>saechsische-de-DDV-Fusszeile-einzeilig-pos</dc:title>
      </cc:Work>
    </rdf:RDF>
  </metadata>
  <defs>
    <style>.cls-1{fill:#706f6f;}.cls-2{fill:#3b4395;}.cls-3{fill:#c62a1b;}.cls-4{fill:#f39200;}.cls-5{fill:#86bc25;}.cls-6{fill:#2db8c5;}</style>
  </defs>
  <title>saechsische-de-DDV-Fusszeile-einzeilig-pos</title>
  <path class="cls-1" d="m221.14 11.73c0 1-0.35 1.5-1.66 1.5h-1.67v-6.81h1.72c1.31 0 1.66 0.52 1.66 1.5zm-1.46-7h-3.81v10.23h3.81c2.52 0 3.4-1.29 3.4-2.75v-4.73c0-1.47-0.88-2.75-3.4-2.75" fill="#706f6f"/>
  <path class="cls-1" d="m230 11.73c0 1-0.35 1.5-1.66 1.5h-1.67v-6.81h1.67c1.31 0 1.66 0.52 1.66 1.5zm-1.47-7.05h-3.8v10.23h3.8c2.52 0 3.4-1.29 3.4-2.75v-4.73c0-1.47-0.88-2.75-3.4-2.75" fill="#706f6f"/>
  <polygon class="cls-1" transform="translate(.0041787)" points="232.92 5.3 236.06 14.94 238.91 14.94 238.91 14.94 242.04 5.3 240.22 4.71 237.48 13.23 234.74 4.71" fill="#706f6f"/>
  <rect class="cls-2" transform="rotate(-36)" x="200.49" y="158.27" width="1.93" height="7.24" fill="#3b4395"/>
  <rect class="cls-3" transform="rotate(-54)" x="134.51" y="210.57" width="7.24" height="1.93" fill="#c62a1b"/>
  <rect class="cls-4" transform="rotate(-71.99)" x="69.796" y="236.79" width="1.93" height="7.24" fill="#f39200"/>
  <rect class="cls-5" x="254.26" width="1.93" height="7.24" fill="#86bc25"/>
  <rect class="cls-6" transform="rotate(-18.01)" x="241.39" y="86.122" width="7.24" height="1.93" fill="#2db8c5"/>
  <path class="cls-1" d="m383.35 14.79h5.6v-0.79h-4.72v-3.88h4.38v-0.79h-4.38v-3.65h4.71v-0.79h-5.59zm-5.12-7.63v1.52c0 1.09-0.58 1.5-1.84 1.5h-2.5v-4.5h2.5c1.26 0 1.84 0.42 1.84 1.51m-5.22 7.63h0.88v-3.79h2.49c2 0 2.73-0.91 2.73-2.29v-1.55c0-1.39-0.73-2.3-2.73-2.3h-3.37zm-5.12-7.63v1.49c0 1.09-0.58 1.5-1.83 1.5h-2.53v-4.5h2.51c1.25 0 1.83 0.42 1.83 1.51m-5.22 7.63h0.88v-3.79h2.49c2 0 2.73-0.91 2.73-2.29v-1.55c0-1.39-0.73-2.3-2.73-2.3h-3.37zm-5.49-9.93v7.11c0 1.39-0.88 2.18-2.55 2.18s-2.55-0.79-2.55-2.18v-7.11h-0.88v7.11c0 1.69 1 3 3.43 3s3.43-1.28 3.43-3v-7.11zm-11.56 2.3v1.49c0 1.09-0.58 1.5-1.83 1.5h-2.64v-4.5h2.66c1.25 0 1.83 0.42 1.83 1.51m0.93 7.63h1l-2.66-3.94a2 2 0 0 0 1.64 -2.2v-1.52c0-1.39-0.73-2.3-2.73-2.3h-3.51v9.93h0.87v-3.82h2.84zm-16.11-7.17c0-1.52 0.58-2.12 2.43-2.12a17.6 17.6 0 0 1 2.62 0.24l0.09-0.76a14.86 14.86 0 0 0 -2.73 -0.27c-2.41 0-3.29 1-3.29 2.89v4.45c0 1.84 0.76 2.89 3.17 2.89a11.48 11.48 0 0 0 3 -0.42v-4.11h-0.88v3.52a10.6 10.6 0 0 1 -2.09 0.22c-1.86 0-2.35-0.66-2.35-2.12zm-6.68 7.17h1.28v-9.93h-0.83v9.08l-4.68-9.11h-1.29v9.93h0.84v-9.06zm-15.58 0h5.61v-0.79h-4.73v-3.88h4.39v-0.79h-4.39v-3.68h4.71v-0.79h-5.59zm-4.65-9.96h-0.88v9.93h0.88zm-10.91 0.79h2.41c1.67 0 2.21 0.69 2.21 2.1v4.15c0 1.41-0.54 2.1-2.21 2.1h-2.41zm-0.88-0.79v9.93h3.28c2.41 0 3.1-1.25 3.1-2.94v-4.05c0-1.69-0.69-2.94-3.1-2.94zm-10 9.93h5.6v-0.79h-4.81v-3.88h4.38v-0.79h-4.38v-3.65h4.71v-0.79h-5.59zm-5.46 0h0.88l-0.3-9.93h-1.33l-3.07 8.11-3.09-8.11h-1.28l-0.3 9.93h0.88l0.21-9.05 2.89 7.77h1.36l2.89-7.77z" fill="#706f6f"/>
  <rect class="cls-1" transform="rotate(-17.99)" x="1.802" y="4.9722" width="2.41" height=".74" fill="#706f6f"/>
  <polygon class="cls-1" transform="translate(.0041787)" points="0.88 6.8 1.47 7.23 2.89 5.28 4.31 7.23 4.9 6.8 3.48 4.85 2.89 5.28 2.29 4.85" fill="#706f6f"/>
  <rect class="cls-1" transform="rotate(-71.99)" x="-3.8958" y="1.2666" width=".74" height="2.41" fill="#706f6f"/>
  <polygon class="cls-1" transform="translate(.0041787)" points="3.26 1.74 2.52 1.74 2.52 4.15 2.52 4.15 3.26 4.15" fill="#706f6f"/>
  <path class="cls-1" d="m10.654 15.03a6.25 6.25 0 0 1 -2.12 -0.35l0.15-0.7a7.26 7.26 0 0 0 1.92 0.3c1.35 0 1.62-0.26 1.62-1.19s0-1.15-1.69-1.54c-1.82-0.43-2-0.88-2-2.21s0.58-1.87 2.37-1.87a8 8 0 0 1 2.07 0.26l-0.09 0.73a11.67 11.67 0 0 0 -2 -0.21c-1.27 0-1.45 0.33-1.45 1.12 0 1 0.06 1.11 1.41 1.45 2.14 0.54 2.26 0.88 2.26 2.25s-0.51 1.96-2.45 1.96z" fill="#706f6f"/>
  <path class="cls-1" d="m20.244 14.88h-0.71l-0.05-0.56a4.65 4.65 0 0 1 -2.47 0.71c-1.29 0-1.89-0.73-1.89-2 0-1.54 0.71-2 2.14-2h2.16v-1.42c0-1-0.53-1.33-1.72-1.33a11 11 0 0 0 -2.16 0.24l-0.13-0.73a9 9 0 0 1 2.24 -0.29c1.88 0 2.63 0.75 2.63 2.11zm-0.86-3.12h-2.13c-1 0-1.3 0.3-1.3 1.25s0.18 1.25 1.2 1.25a4.16 4.16 0 0 0 2.23 -0.75zm-3.17-6.21h0.92v1h-0.92zm2.54 0h0.92v1h-0.92z" fill="#706f6f"/>
  <path class="cls-1" d="m23.204 12.55c0 1.3 0.53 1.71 1.89 1.71a9.77 9.77 0 0 0 1.55 -0.15l0.11 0.71a6.87 6.87 0 0 1 -1.66 0.21c-2.05 0-2.76-0.94-2.76-2.51v-2.56c0-1.57 0.71-2.51 2.76-2.51a7.4 7.4 0 0 1 1.66 0.21l-0.11 0.72a8.72 8.72 0 0 0 -1.55 -0.15c-1.36 0-1.89 0.4-1.89 1.7z" fill="#706f6f"/>
  <path class="cls-1" d="m33.374 14.88v-5.89c0-0.54-0.29-0.73-0.79-0.73a7.66 7.66 0 0 0 -2.8 0.84v5.78h-0.87v-10.2l0.87-0.12v3.73a8.08 8.08 0 0 1 2.92 -0.79c1.13 0 1.54 0.65 1.54 1.65v5.78z" fill="#706f6f"/>
  <path class="cls-1" d="m38.774 15.03a6.25 6.25 0 0 1 -2.14 -0.37l0.15-0.7a7.26 7.26 0 0 0 1.92 0.3c1.35 0 1.62-0.26 1.62-1.19s0-1.15-1.69-1.54c-1.82-0.43-2-0.88-2-2.21s0.58-1.87 2.37-1.87a8 8 0 0 1 2.07 0.26l-0.09 0.73a11.67 11.67 0 0 0 -2 -0.21c-1.27 0-1.45 0.33-1.45 1.12 0 1 0.06 1.11 1.41 1.45 2.14 0.54 2.26 0.88 2.26 2.25s-0.49 1.98-2.43 1.98z" fill="#706f6f"/>
  <path class="cls-1" d="m43.534 6.23v-1.55h0.87v1.6zm0 8.65v-7.28h0.87v7.28z" fill="#706f6f"/>
  <path class="cls-1" d="m48.984 15.03a6.3 6.3 0 0 1 -2.14 -0.37l0.15-0.7a7.27 7.27 0 0 0 1.93 0.3c1.34 0 1.61-0.26 1.61-1.19s0-1.15-1.69-1.54c-1.82-0.43-2-0.88-2-2.21s0.58-1.87 2.37-1.87a8 8 0 0 1 2.07 0.26l-0.09 0.73a11.55 11.55 0 0 0 -2 -0.21c-1.28 0-1.45 0.33-1.45 1.12 0 1 0.05 1.11 1.4 1.45 2.14 0.54 2.26 0.88 2.26 2.25s-0.48 1.98-2.42 1.98z" fill="#706f6f"/>
  <path class="cls-1" d="m54.134 12.55c0 1.3 0.53 1.71 1.89 1.71a9.77 9.77 0 0 0 1.55 -0.15l0.11 0.71a6.87 6.87 0 0 1 -1.66 0.21c-2.05 0-2.75-0.94-2.75-2.51v-2.56c0-1.57 0.7-2.51 2.75-2.51a7.4 7.4 0 0 1 1.66 0.21l-0.11 0.72a8.72 8.72 0 0 0 -1.55 -0.15c-1.36 0-1.89 0.4-1.89 1.7z" fill="#706f6f"/>
  <path class="cls-1" d="m64.304 14.88v-5.89c0-0.54-0.28-0.73-0.79-0.73a7.66 7.66 0 0 0 -2.8 0.84v5.78h-0.87v-10.2l0.87-0.12v3.73a8.08 8.08 0 0 1 2.92 -0.79c1.13 0 1.54 0.65 1.54 1.65v5.78z" fill="#706f6f"/>
  <path class="cls-1" d="m70.184 14.27a9.48 9.48 0 0 0 2.3 -0.34l0.15 0.7a8.07 8.07 0 0 1 -2.52 0.4c-2 0-2.7-1.06-2.7-2.64v-2.29c0-1.5 0.67-2.65 2.72-2.65a2.33 2.33 0 0 1 2.65 2.65v1.4h-4.5v0.92c0 1.26 0.44 1.85 1.9 1.85zm-1.9-3.54h3.64v-0.66c0-1.23-0.43-1.87-1.79-1.87s-1.85 0.64-1.85 1.87z" fill="#706f6f"/>
  <path class="cls-1" d="m75.294 13.6h0.92v1.28h-0.92z" fill="#706f6f"/>
  <path class="cls-1" d="m78.764 9.68a2 2 0 0 1 2.24 -2.25 11.25 11.25 0 0 1 2.24 0.24v-2.99l0.87-0.12v10.32h-0.79l-0.05-0.68a4.18 4.18 0 0 1 -2.45 0.83 1.8 1.8 0 0 1 -2.06 -2zm4.48-1.22a11.67 11.67 0 0 0 -2.27 -0.25c-1 0-1.35 0.48-1.35 1.47v3.31c0 0.84 0.27 1.25 1.26 1.25a3.75 3.75 0 0 0 2.36 -0.93z" fill="#706f6f"/>
  <path class="cls-1" d="m89.194 14.27a9.33 9.33 0 0 0 2.3 -0.34l0.15 0.7a8 8 0 0 1 -2.51 0.4c-2.05 0-2.71-1.06-2.71-2.64v-2.29c0-1.5 0.68-2.65 2.73-2.65a2.33 2.33 0 0 1 2.64 2.65v1.4h-4.5v0.92c0 1.26 0.45 1.85 1.9 1.85zm-1.9-3.54h3.65v-0.66c0-1.23-0.43-1.87-1.79-1.87s-1.86 0.64-1.86 1.87z" fill="#706f6f"/>
  <path class="cls-1" d="m97.534 6.23v-1.55h0.86v1.6zm0 8.65v-7.28h0.86v7.28z" fill="#706f6f"/>
  <path class="cls-1" d="m103.02 15.03a6.34 6.34 0 0 1 -2.14 -0.37l0.15-0.7a7.33 7.33 0 0 0 1.93 0.3c1.34 0 1.61-0.26 1.61-1.19s0-1.15-1.69-1.54c-1.82-0.43-2-0.88-2-2.21s0.58-1.87 2.38-1.87a8 8 0 0 1 2.06 0.26l-0.09 0.73a11.46 11.46 0 0 0 -2 -0.21c-1.27 0-1.45 0.33-1.45 1.12 0 1 0.06 1.11 1.4 1.45 2.14 0.54 2.26 0.88 2.26 2.25s-0.48 1.98-2.42 1.98z" fill="#706f6f"/>
  <path class="cls-1" d="m111.53 14.75a4.57 4.57 0 0 1 -1.52 0.28c-1.16 0-1.65-0.42-1.65-1.57v-5.11h-1.4v-0.75h1.4v-1.72l0.87-0.12v1.84h2.23l-0.09 0.75h-2.14v5c0 0.65 0.09 0.92 0.84 0.92a4.76 4.76 0 0 0 1.3 -0.21z" fill="#706f6f"/>
  <path class="cls-1" d="m119.28 14.27a9.48 9.48 0 0 0 2.31 -0.34l0.15 0.7a8.07 8.07 0 0 1 -2.52 0.4c-2 0-2.7-1.06-2.7-2.64v-2.29c0-1.5 0.67-2.65 2.72-2.65a2.33 2.33 0 0 1 2.65 2.65v1.4h-4.5v0.92c0 1.26 0.44 1.85 1.89 1.85zm-1.89-3.54h3.64v-0.66c0-1.23-0.43-1.87-1.79-1.87s-1.85 0.64-1.85 1.87z" fill="#706f6f"/>
  <path class="cls-1" d="m124.2 6.23v-1.55h0.87v1.6zm0 8.65v-7.28h0.87v7.28z" fill="#706f6f"/>
  <path class="cls-1" d="m132.22 14.88v-5.89c0-0.54-0.29-0.73-0.8-0.73a7.67 7.67 0 0 0 -2.79 0.84v5.78h-0.87v-7.28h0.77l0.06 0.66a8.26 8.26 0 0 1 3 -0.81c1.14 0 1.54 0.65 1.54 1.65v5.78z" fill="#706f6f"/>
  <path class="cls-1" d="m139.21 4.93h3.38c2 0 2.74 0.91 2.74 2.3v1.55c0 1.39-0.73 2.31-2.74 2.31h-2.5v3.79h-0.88zm3.4 0.79h-2.52v4.57h2.52c1.25 0 1.84-0.42 1.84-1.51v-1.55c0-1.09-0.59-1.55-1.84-1.55z" fill="#706f6f"/>
  <path class="cls-1" d="m150.59 8.3a16.67 16.67 0 0 0 -2.3 1.35v5.23h-0.87v-7.28h0.78v1.11a12.72 12.72 0 0 1 2.25 -1.26z" fill="#706f6f"/>
  <path class="cls-1" d="m154.6 15.03c-2.05 0-2.83-1.15-2.83-2.64v-2.29c0-1.5 0.78-2.65 2.83-2.65s2.82 1.15 2.82 2.65v2.29c0 1.49-0.78 2.64-2.82 2.64zm1.95-5c0-1.23-0.59-1.84-1.95-1.84s-2 0.61-2 1.84v2.35c0 1.22 0.59 1.84 2 1.84s1.93-0.54 1.93-1.8z" fill="#706f6f"/>
  <path class="cls-1" d="m159.53 9.68a2 2 0 0 1 2.25 -2.25 11.25 11.25 0 0 1 2.24 0.24v-2.99l0.87-0.12v10.32h-0.8v-0.68a4.2 4.2 0 0 1 -2.45 0.83 1.8 1.8 0 0 1 -2.07 -2zm4.49-1.22a11.67 11.67 0 0 0 -2.27 -0.25c-1 0-1.35 0.48-1.35 1.47v3.31c0 0.84 0.27 1.25 1.26 1.25a3.78 3.78 0 0 0 2.36 -0.93z" fill="#706f6f"/>
  <path class="cls-1" d="m168.35 7.6v5.89c0 0.54 0.28 0.74 0.79 0.74a7.66 7.66 0 0 0 2.8 -0.84v-5.79h0.86v7.28h-0.76l-0.06-0.65a8.25 8.25 0 0 1 -3 0.8c-1.14 0-1.54-0.64-1.54-1.64v-5.79z" fill="#706f6f"/>
  <path class="cls-1" d="m175.53 14.88v-10.2l0.87-0.12v10.32zm5.21-7.28-2.9 3.59 3 3.69h-1.11l-3-3.69 2.87-3.59z" fill="#706f6f"/>
  <path class="cls-1" d="m186.44 14.75a4.58 4.58 0 0 1 -1.53 0.28c-1.15 0-1.64-0.42-1.64-1.57v-5.11h-1.41v-0.75h1.41v-1.72l0.87-0.12v1.84h2.22l-0.09 0.75h-2.13v5c0 0.65 0.09 0.92 0.83 0.92a4.64 4.64 0 0 0 1.3 -0.21z" fill="#706f6f"/>
  <path class="cls-1" d="m191.6 9.68a2 2 0 0 1 2.24 -2.25 11.25 11.25 0 0 1 2.24 0.24v-2.99l0.87-0.12v10.32h-0.79l-0.05-0.68a4.18 4.18 0 0 1 -2.45 0.83 1.8 1.8 0 0 1 -2.06 -2zm4.48-1.22a11.67 11.67 0 0 0 -2.27 -0.25c-1 0-1.35 0.48-1.35 1.47v3.31c0 0.84 0.27 1.25 1.26 1.25a3.75 3.75 0 0 0 2.36 -0.93z" fill="#706f6f"/>
  <path class="cls-1" d="m202.03 14.27a9.33 9.33 0 0 0 2.3 -0.34l0.15 0.7a8 8 0 0 1 -2.51 0.4c-2.05 0-2.71-1.06-2.71-2.64v-2.29c0-1.5 0.68-2.65 2.73-2.65a2.33 2.33 0 0 1 2.64 2.65v1.4h-4.5v0.92c0 1.26 0.45 1.85 1.9 1.85zm-1.9-3.54h3.65v-0.66c0-1.23-0.43-1.87-1.79-1.87s-1.86 0.64-1.86 1.87z" fill="#706f6f"/>
  <path class="cls-1" d="m210.12 8.3a16.67 16.67 0 0 0 -2.3 1.35v5.23h-0.87v-7.28h0.78v1.11a13 13 0 0 1 2.24 -1.26z" fill="#706f6f"/>
</svg>
